# xmcd
#
# Track frame offsets:
#	150
#	17092
#	31592
#	46830
#	63442
#	78845
#	92247
#	108682
#	126480
#	143405
#	161395
#	178917
#	194990
#	210052
#	226395
#
# Disc length: 3283 seconds
#
# Revision: 1
# Processed by: cddbd v1.4PL0 Copyright (c) Steve Scherf et al.
# Submitted via: EasyCDDAExtractor 4.6.0.1
#
DISCID=c40cd10f
DTITLE=솔리드(solid) - best HIP HOP-DANCE
DYEAR=1999
DGENRE=Dance
TTITLE0=천생연분
TTITLE1=나만의 친구
TTITLE2=HAPPY ENDING
TTITLE3=끼리끼리
TTITLE4=슬럼프
TTITLE5=넌 누구니
TTITLE6=WHY
TTITLE7=잠든 널 포켓 속에
TTITLE8=어둠이 걷히면
TTITLE9=IF WOU WANT MY LOVIN (LIVE)
TTITLE10=PASS ME THE MIC
TTITLE11=HIP HOP NATION
TTITLE12=HAPPY ENDING (LIVE)
TTITLE13=나만의 친구(LIVE)
TTITLE14=천생연분(LIVE)
EXTD=by choi won pyo
EXTT0=
EXTT1=
EXTT2=
EXTT3=
EXTT4=
EXTT5=
EXTT6=
EXTT7=
EXTT8=
EXTT9=
EXTT10=
EXTT11=
EXTT12=
EXTT13=
EXTT14=
PLAYORDER=
